<mxfile host="app.diagrams.net" agent="Mozilla/5.0 (X11; Linux x86_64) AppleWebKit/537.36 (KHTML, like Gecko) Chrome/136.0.0.0 Safari/537.36" version="27.0.6">
  <diagram id="C5RBs43oDa-KdzZeNtuy" name="Page-1">
    <mxGraphModel dx="4063" dy="3258" grid="1" gridSize="10" guides="1" tooltips="1" connect="1" arrows="1" fold="1" page="1" pageScale="1" pageWidth="827" pageHeight="1169" math="0" shadow="0">
      <root>
        <mxCell id="WIyWlLk6GJQsqaUBKTNV-0" />
        <mxCell id="WIyWlLk6GJQsqaUBKTNV-1" parent="WIyWlLk6GJQsqaUBKTNV-0" />
        <mxCell id="WIyWlLk6GJQsqaUBKTNV-2" value="" style="rounded=0;html=1;jettySize=auto;orthogonalLoop=1;fontSize=11;endArrow=block;endFill=0;endSize=8;strokeWidth=1;shadow=0;labelBackgroundColor=none;edgeStyle=orthogonalEdgeStyle;" parent="WIyWlLk6GJQsqaUBKTNV-1" source="WIyWlLk6GJQsqaUBKTNV-3" target="WIyWlLk6GJQsqaUBKTNV-6" edge="1">
          <mxGeometry relative="1" as="geometry" />
        </mxCell>
        <mxCell id="WIyWlLk6GJQsqaUBKTNV-3" value="Send arm signal" style="rounded=1;whiteSpace=wrap;html=1;fontSize=12;glass=0;strokeWidth=1;shadow=0;" parent="WIyWlLk6GJQsqaUBKTNV-1" vertex="1">
          <mxGeometry x="160" y="80" width="120" height="40" as="geometry" />
        </mxCell>
        <mxCell id="WIyWlLk6GJQsqaUBKTNV-4" value="Yes" style="rounded=0;html=1;jettySize=auto;orthogonalLoop=1;fontSize=11;endArrow=block;endFill=0;endSize=8;strokeWidth=1;shadow=0;labelBackgroundColor=none;edgeStyle=orthogonalEdgeStyle;" parent="WIyWlLk6GJQsqaUBKTNV-1" source="WIyWlLk6GJQsqaUBKTNV-6" edge="1">
          <mxGeometry x="0.0131" y="20" relative="1" as="geometry">
            <mxPoint y="-1" as="offset" />
            <mxPoint x="220" y="290" as="targetPoint" />
          </mxGeometry>
        </mxCell>
        <mxCell id="WIyWlLk6GJQsqaUBKTNV-5" value="No" style="edgeStyle=orthogonalEdgeStyle;rounded=0;html=1;jettySize=auto;orthogonalLoop=1;fontSize=11;endArrow=block;endFill=0;endSize=8;strokeWidth=1;shadow=0;labelBackgroundColor=none;" parent="WIyWlLk6GJQsqaUBKTNV-1" source="WIyWlLk6GJQsqaUBKTNV-6" target="WIyWlLk6GJQsqaUBKTNV-7" edge="1">
          <mxGeometry y="10" relative="1" as="geometry">
            <mxPoint as="offset" />
          </mxGeometry>
        </mxCell>
        <mxCell id="WIyWlLk6GJQsqaUBKTNV-6" value="&lt;font style=&quot;font-size: 10px;&quot;&gt;Rocket enters armed mode?&lt;/font&gt;" style="rhombus;whiteSpace=wrap;html=1;shadow=0;fontFamily=Helvetica;fontSize=12;align=center;strokeWidth=1;spacing=9;spacingTop=-4;" parent="WIyWlLk6GJQsqaUBKTNV-1" vertex="1">
          <mxGeometry x="170" y="170" width="100" height="80" as="geometry" />
        </mxCell>
        <mxCell id="WIyWlLk6GJQsqaUBKTNV-7" value="Turn the arm switch off. Approach the rocket and check:&lt;div&gt;&amp;nbsp;- power&amp;nbsp; &amp;nbsp; &amp;nbsp; &amp;nbsp; &amp;nbsp; &amp;nbsp; &amp;nbsp;&amp;nbsp;&lt;/div&gt;&lt;div&gt;- signal integrity&lt;/div&gt;&lt;div&gt;- wiring&amp;nbsp; &amp;nbsp; &amp;nbsp; &amp;nbsp; &amp;nbsp; &amp;nbsp;&lt;span style=&quot;background-color: transparent; color: light-dark(rgb(0, 0, 0), rgb(255, 255, 255));&quot;&gt;&amp;nbsp; &amp;nbsp;&lt;/span&gt;&lt;/div&gt;" style="rounded=1;whiteSpace=wrap;html=1;fontSize=12;glass=0;strokeWidth=1;shadow=0;" parent="WIyWlLk6GJQsqaUBKTNV-1" vertex="1">
          <mxGeometry x="320" y="165" width="120" height="90" as="geometry" />
        </mxCell>
        <mxCell id="_IbXsYXAk7EcUgx4raiA-2" value="" style="rounded=0;html=1;jettySize=auto;orthogonalLoop=1;fontSize=11;endArrow=block;endFill=0;endSize=8;strokeWidth=1;shadow=0;labelBackgroundColor=none;edgeStyle=orthogonalEdgeStyle;" edge="1" parent="WIyWlLk6GJQsqaUBKTNV-1" source="_IbXsYXAk7EcUgx4raiA-3">
          <mxGeometry x="-0.5062" y="40" relative="1" as="geometry">
            <mxPoint as="offset" />
            <mxPoint x="220" y="80" as="targetPoint" />
          </mxGeometry>
        </mxCell>
        <mxCell id="_IbXsYXAk7EcUgx4raiA-10" value="Yes" style="edgeLabel;html=1;align=center;verticalAlign=middle;resizable=0;points=[];labelBackgroundColor=none;" vertex="1" connectable="0" parent="_IbXsYXAk7EcUgx4raiA-2">
          <mxGeometry x="-0.2438" relative="1" as="geometry">
            <mxPoint x="20" y="1" as="offset" />
          </mxGeometry>
        </mxCell>
        <mxCell id="_IbXsYXAk7EcUgx4raiA-3" value="Ready to launch?" style="rhombus;whiteSpace=wrap;html=1;shadow=0;fontFamily=Helvetica;fontSize=9;align=center;strokeWidth=1;spacing=6;spacingTop=6;spacingRight=6;spacingLeft=6;spacingBottom=6;" vertex="1" parent="WIyWlLk6GJQsqaUBKTNV-1">
          <mxGeometry x="170" y="-40" width="100" height="80" as="geometry" />
        </mxCell>
        <mxCell id="_IbXsYXAk7EcUgx4raiA-5" value="" style="rounded=0;html=1;jettySize=auto;orthogonalLoop=1;fontSize=11;endArrow=block;endFill=0;endSize=8;strokeWidth=1;shadow=0;labelBackgroundColor=none;edgeStyle=orthogonalEdgeStyle;" edge="1" parent="WIyWlLk6GJQsqaUBKTNV-1">
          <mxGeometry relative="1" as="geometry">
            <mxPoint x="220" y="-40" as="targetPoint" />
            <mxPoint x="220.0322580645161" y="-90" as="sourcePoint" />
          </mxGeometry>
        </mxCell>
        <mxCell id="_IbXsYXAk7EcUgx4raiA-11" value="No" style="edgeStyle=orthogonalEdgeStyle;rounded=0;html=1;jettySize=auto;orthogonalLoop=1;fontSize=11;endArrow=block;endFill=0;endSize=8;strokeWidth=1;shadow=0;labelBackgroundColor=none;" edge="1" parent="WIyWlLk6GJQsqaUBKTNV-1" target="_IbXsYXAk7EcUgx4raiA-12">
          <mxGeometry x="-0.2163" y="10" relative="1" as="geometry">
            <mxPoint as="offset" />
            <mxPoint x="270" as="sourcePoint" />
          </mxGeometry>
        </mxCell>
        <mxCell id="_IbXsYXAk7EcUgx4raiA-12" value="Then don&#39;t launch" style="rounded=1;whiteSpace=wrap;html=1;fontSize=12;glass=0;strokeWidth=1;shadow=0;" vertex="1" parent="WIyWlLk6GJQsqaUBKTNV-1">
          <mxGeometry x="320" y="-30" width="120" height="60" as="geometry" />
        </mxCell>
        <mxCell id="_IbXsYXAk7EcUgx4raiA-13" value="" style="rounded=0;html=1;jettySize=auto;orthogonalLoop=1;fontSize=11;endArrow=block;endFill=0;endSize=8;strokeWidth=1;shadow=0;labelBackgroundColor=none;edgeStyle=orthogonalEdgeStyle;entryX=1;entryY=0.5;entryDx=0;entryDy=0;" edge="1" parent="WIyWlLk6GJQsqaUBKTNV-1" target="_IbXsYXAk7EcUgx4raiA-37">
          <mxGeometry relative="1" as="geometry">
            <mxPoint x="280" y="-110" as="targetPoint" />
            <mxPoint x="379.71" y="-30" as="sourcePoint" />
            <Array as="points">
              <mxPoint x="380" y="-120" />
            </Array>
          </mxGeometry>
        </mxCell>
        <mxCell id="_IbXsYXAk7EcUgx4raiA-14" value="" style="rounded=0;html=1;jettySize=auto;orthogonalLoop=1;fontSize=11;endArrow=block;endFill=0;endSize=8;strokeWidth=1;shadow=0;labelBackgroundColor=none;edgeStyle=orthogonalEdgeStyle;" edge="1" parent="WIyWlLk6GJQsqaUBKTNV-1" source="_IbXsYXAk7EcUgx4raiA-15" target="_IbXsYXAk7EcUgx4raiA-18">
          <mxGeometry relative="1" as="geometry" />
        </mxCell>
        <mxCell id="_IbXsYXAk7EcUgx4raiA-15" value="Send launch signal" style="rounded=1;whiteSpace=wrap;html=1;fontSize=12;glass=0;strokeWidth=1;shadow=0;" vertex="1" parent="WIyWlLk6GJQsqaUBKTNV-1">
          <mxGeometry x="160" y="290" width="120" height="40" as="geometry" />
        </mxCell>
        <mxCell id="_IbXsYXAk7EcUgx4raiA-16" value="Yes" style="rounded=0;html=1;jettySize=auto;orthogonalLoop=1;fontSize=11;endArrow=block;endFill=0;endSize=8;strokeWidth=1;shadow=0;labelBackgroundColor=none;edgeStyle=orthogonalEdgeStyle;" edge="1" parent="WIyWlLk6GJQsqaUBKTNV-1" source="_IbXsYXAk7EcUgx4raiA-18">
          <mxGeometry x="0.0131" y="20" relative="1" as="geometry">
            <mxPoint y="-1" as="offset" />
            <mxPoint x="220" y="500" as="targetPoint" />
          </mxGeometry>
        </mxCell>
        <mxCell id="_IbXsYXAk7EcUgx4raiA-17" value="No" style="edgeStyle=orthogonalEdgeStyle;rounded=0;html=1;jettySize=auto;orthogonalLoop=1;fontSize=11;endArrow=block;endFill=0;endSize=8;strokeWidth=1;shadow=0;labelBackgroundColor=none;" edge="1" parent="WIyWlLk6GJQsqaUBKTNV-1" source="_IbXsYXAk7EcUgx4raiA-18" target="_IbXsYXAk7EcUgx4raiA-19">
          <mxGeometry y="10" relative="1" as="geometry">
            <mxPoint as="offset" />
          </mxGeometry>
        </mxCell>
        <mxCell id="_IbXsYXAk7EcUgx4raiA-18" value="&lt;font style=&quot;font-size: 10px;&quot;&gt;Rocket launches&lt;/font&gt;" style="rhombus;whiteSpace=wrap;html=1;shadow=0;fontFamily=Helvetica;fontSize=12;align=center;strokeWidth=1;spacing=9;spacingTop=-4;" vertex="1" parent="WIyWlLk6GJQsqaUBKTNV-1">
          <mxGeometry x="170" y="380" width="100" height="80" as="geometry" />
        </mxCell>
        <mxCell id="_IbXsYXAk7EcUgx4raiA-19" value="Turn all switches off. Listen for the audible status signals:&lt;div&gt;&lt;b&gt;Launch: &lt;/b&gt;&lt;i&gt;single note&lt;/i&gt;&lt;br&gt;&lt;div&gt;&lt;b&gt;Armed: &lt;/b&gt;&lt;i&gt;siren&lt;/i&gt;&lt;/div&gt;&lt;div&gt;&lt;b&gt;Preelaunch: &lt;/b&gt;&lt;i&gt;silent&lt;/i&gt;&lt;/div&gt;&lt;div&gt;&lt;br&gt;&lt;/div&gt;&lt;/div&gt;" style="rounded=1;whiteSpace=wrap;html=1;fontSize=12;glass=0;strokeWidth=1;shadow=0;spacing=2;spacingTop=10;" vertex="1" parent="WIyWlLk6GJQsqaUBKTNV-1">
          <mxGeometry x="320" y="367.5" width="120" height="105" as="geometry" />
        </mxCell>
        <mxCell id="_IbXsYXAk7EcUgx4raiA-28" value="" style="rounded=0;html=1;jettySize=auto;orthogonalLoop=1;fontSize=11;endArrow=block;endFill=0;endSize=8;strokeWidth=1;shadow=0;labelBackgroundColor=none;edgeStyle=orthogonalEdgeStyle;entryX=0.5;entryY=0;entryDx=0;entryDy=0;exitX=0.5;exitY=0;exitDx=0;exitDy=0;" edge="1" parent="WIyWlLk6GJQsqaUBKTNV-1" source="_IbXsYXAk7EcUgx4raiA-19">
          <mxGeometry relative="1" as="geometry">
            <mxPoint x="379.72" y="305" as="sourcePoint" />
            <mxPoint x="379.72" y="255" as="targetPoint" />
          </mxGeometry>
        </mxCell>
        <mxCell id="_IbXsYXAk7EcUgx4raiA-29" value="Armed&amp;nbsp;&lt;span style=&quot;color: light-dark(rgb(0, 0, 0), rgb(255, 255, 255));&quot;&gt;or&lt;/span&gt;&lt;div&gt;&lt;span style=&quot;color: light-dark(rgb(0, 0, 0), rgb(255, 255, 255));&quot;&gt;preelaunch&lt;/span&gt;&lt;/div&gt;" style="edgeLabel;html=1;align=center;verticalAlign=middle;resizable=0;points=[];labelBackgroundColor=none;" vertex="1" connectable="0" parent="_IbXsYXAk7EcUgx4raiA-28">
          <mxGeometry x="0.0639" y="-1" relative="1" as="geometry">
            <mxPoint x="33" y="13" as="offset" />
          </mxGeometry>
        </mxCell>
        <mxCell id="_IbXsYXAk7EcUgx4raiA-30" value="Launch" style="edgeStyle=orthogonalEdgeStyle;rounded=0;html=1;jettySize=auto;orthogonalLoop=1;fontSize=11;endArrow=block;endFill=0;endSize=8;strokeWidth=1;shadow=0;labelBackgroundColor=none;" edge="1" parent="WIyWlLk6GJQsqaUBKTNV-1">
          <mxGeometry x="-0.2" y="10" relative="1" as="geometry">
            <mxPoint as="offset" />
            <mxPoint x="440" y="419.72" as="sourcePoint" />
            <mxPoint x="490" y="419.72" as="targetPoint" />
          </mxGeometry>
        </mxCell>
        <mxCell id="_IbXsYXAk7EcUgx4raiA-31" value="Wait for 1 minute with no power to base station" style="rounded=1;whiteSpace=wrap;html=1;fontSize=12;glass=0;strokeWidth=1;shadow=0;" vertex="1" parent="WIyWlLk6GJQsqaUBKTNV-1">
          <mxGeometry x="490" y="390" width="120" height="60" as="geometry" />
        </mxCell>
        <mxCell id="_IbXsYXAk7EcUgx4raiA-33" value="" style="rounded=0;html=1;jettySize=auto;orthogonalLoop=1;fontSize=11;endArrow=block;endFill=0;endSize=8;strokeWidth=1;shadow=0;labelBackgroundColor=none;edgeStyle=orthogonalEdgeStyle;exitX=0.5;exitY=1;exitDx=0;exitDy=0;entryX=1;entryY=0.5;entryDx=0;entryDy=0;" edge="1" parent="WIyWlLk6GJQsqaUBKTNV-1" source="_IbXsYXAk7EcUgx4raiA-31" target="_IbXsYXAk7EcUgx4raiA-35">
          <mxGeometry relative="1" as="geometry">
            <mxPoint x="549.91" y="450" as="sourcePoint" />
            <mxPoint x="550" y="500" as="targetPoint" />
          </mxGeometry>
        </mxCell>
        <mxCell id="_IbXsYXAk7EcUgx4raiA-36" value="Rocket launches" style="edgeLabel;html=1;align=center;verticalAlign=middle;resizable=0;points=[];labelBackgroundColor=none;" vertex="1" connectable="0" parent="_IbXsYXAk7EcUgx4raiA-33">
          <mxGeometry x="-0.21" relative="1" as="geometry">
            <mxPoint x="-8" y="-10" as="offset" />
          </mxGeometry>
        </mxCell>
        <mxCell id="_IbXsYXAk7EcUgx4raiA-35" value="Rocket is in flight" style="ellipse;whiteSpace=wrap;html=1;" vertex="1" parent="WIyWlLk6GJQsqaUBKTNV-1">
          <mxGeometry x="160" y="500" width="120" height="80" as="geometry" />
        </mxCell>
        <mxCell id="_IbXsYXAk7EcUgx4raiA-37" value="&lt;span style=&quot;font-size: 9px;&quot;&gt;Rocket is on launchpad and has battery power&lt;/span&gt;" style="ellipse;whiteSpace=wrap;html=1;" vertex="1" parent="WIyWlLk6GJQsqaUBKTNV-1">
          <mxGeometry x="160" y="-160" width="120" height="80" as="geometry" />
        </mxCell>
        <mxCell id="_IbXsYXAk7EcUgx4raiA-38" value="Approach the rocket carefully and disable the ignitors. Then remove motors from gimbal and&amp;nbsp;&lt;span style=&quot;background-color: transparent; color: light-dark(rgb(0, 0, 0), rgb(255, 255, 255));&quot;&gt;verify:&lt;/span&gt;&lt;div&gt;&lt;div&gt;&amp;nbsp;- power&amp;nbsp; &amp;nbsp; &amp;nbsp; &amp;nbsp; &amp;nbsp; &amp;nbsp; &amp;nbsp;&amp;nbsp;&lt;/div&gt;&lt;div&gt;- signal integrity&lt;/div&gt;&lt;div&gt;- wiring&amp;nbsp; &amp;nbsp; &amp;nbsp; &amp;nbsp; &amp;nbsp; &amp;nbsp;&lt;span style=&quot;background-color: transparent; color: light-dark(rgb(0, 0, 0), rgb(255, 255, 255));&quot;&gt;&amp;nbsp; &amp;nbsp;&lt;/span&gt;&lt;/div&gt;&lt;/div&gt;" style="rounded=1;whiteSpace=wrap;html=1;fontSize=12;glass=0;strokeWidth=1;shadow=0;" vertex="1" parent="WIyWlLk6GJQsqaUBKTNV-1">
          <mxGeometry x="490" y="145" width="120" height="130" as="geometry" />
        </mxCell>
        <mxCell id="_IbXsYXAk7EcUgx4raiA-39" value="" style="rounded=0;html=1;jettySize=auto;orthogonalLoop=1;fontSize=11;endArrow=block;endFill=0;endSize=8;strokeWidth=1;shadow=0;labelBackgroundColor=none;edgeStyle=orthogonalEdgeStyle;exitX=0.5;exitY=0;exitDx=0;exitDy=0;entryX=0.5;entryY=1;entryDx=0;entryDy=0;" edge="1" parent="WIyWlLk6GJQsqaUBKTNV-1" source="_IbXsYXAk7EcUgx4raiA-31" target="_IbXsYXAk7EcUgx4raiA-38">
          <mxGeometry relative="1" as="geometry">
            <mxPoint x="549.87" y="335" as="sourcePoint" />
            <mxPoint x="549.87" y="285" as="targetPoint" />
          </mxGeometry>
        </mxCell>
        <mxCell id="_IbXsYXAk7EcUgx4raiA-40" value="Rocket still&lt;div&gt;doesn&#39;t&amp;nbsp;&lt;span style=&quot;color: light-dark(rgb(0, 0, 0), rgb(255, 255, 255));&quot;&gt;launch&lt;/span&gt;&lt;/div&gt;" style="edgeLabel;html=1;align=center;verticalAlign=middle;resizable=0;points=[];labelBackgroundColor=none;" vertex="1" connectable="0" parent="_IbXsYXAk7EcUgx4raiA-39">
          <mxGeometry x="0.0007" y="1" relative="1" as="geometry">
            <mxPoint x="41" y="-3" as="offset" />
          </mxGeometry>
        </mxCell>
        <mxCell id="_IbXsYXAk7EcUgx4raiA-41" value="" style="rounded=0;html=1;jettySize=auto;orthogonalLoop=1;fontSize=11;endArrow=block;endFill=0;endSize=8;strokeWidth=1;shadow=0;labelBackgroundColor=none;edgeStyle=orthogonalEdgeStyle;exitX=0.5;exitY=1;exitDx=0;exitDy=0;" edge="1" parent="WIyWlLk6GJQsqaUBKTNV-1" target="_IbXsYXAk7EcUgx4raiA-44" source="_IbXsYXAk7EcUgx4raiA-35">
          <mxGeometry relative="1" as="geometry">
            <mxPoint x="220" y="590" as="sourcePoint" />
          </mxGeometry>
        </mxCell>
        <mxCell id="_IbXsYXAk7EcUgx4raiA-42" value="Yes" style="rounded=0;html=1;jettySize=auto;orthogonalLoop=1;fontSize=11;endArrow=block;endFill=0;endSize=8;strokeWidth=1;shadow=0;labelBackgroundColor=none;edgeStyle=orthogonalEdgeStyle;entryX=0.5;entryY=0;entryDx=0;entryDy=0;" edge="1" parent="WIyWlLk6GJQsqaUBKTNV-1" source="_IbXsYXAk7EcUgx4raiA-44" target="_IbXsYXAk7EcUgx4raiA-46">
          <mxGeometry x="0.0131" y="20" relative="1" as="geometry">
            <mxPoint y="-1" as="offset" />
            <mxPoint x="220" y="750" as="targetPoint" />
          </mxGeometry>
        </mxCell>
        <mxCell id="_IbXsYXAk7EcUgx4raiA-43" value="No" style="edgeStyle=orthogonalEdgeStyle;rounded=0;html=1;jettySize=auto;orthogonalLoop=1;fontSize=11;endArrow=block;endFill=0;endSize=8;strokeWidth=1;shadow=0;labelBackgroundColor=none;" edge="1" parent="WIyWlLk6GJQsqaUBKTNV-1" source="_IbXsYXAk7EcUgx4raiA-44" target="_IbXsYXAk7EcUgx4raiA-45">
          <mxGeometry y="10" relative="1" as="geometry">
            <mxPoint as="offset" />
          </mxGeometry>
        </mxCell>
        <mxCell id="_IbXsYXAk7EcUgx4raiA-44" value="&lt;font style=&quot;font-size: 11px;&quot;&gt;Rocket is in stable flight?&lt;/font&gt;" style="rhombus;whiteSpace=wrap;html=1;shadow=0;fontFamily=Helvetica;fontSize=9;align=center;strokeWidth=1;spacing=9;spacingTop=-4;" vertex="1" parent="WIyWlLk6GJQsqaUBKTNV-1">
          <mxGeometry x="170" y="630" width="100" height="80" as="geometry" />
        </mxCell>
        <mxCell id="_IbXsYXAk7EcUgx4raiA-45" value="&lt;div&gt;&lt;div&gt;Use discretion and choose whether to allow the flight to complete, or to activate emergency parachute release&lt;/div&gt;&lt;/div&gt;" style="rounded=1;whiteSpace=wrap;html=1;fontSize=12;glass=0;strokeWidth=1;shadow=0;spacing=1;spacingTop=-2;" vertex="1" parent="WIyWlLk6GJQsqaUBKTNV-1">
          <mxGeometry x="320" y="617.5" width="120" height="105" as="geometry" />
        </mxCell>
        <mxCell id="_IbXsYXAk7EcUgx4raiA-46" value="Rocket reaches apogee" style="ellipse;whiteSpace=wrap;html=1;" vertex="1" parent="WIyWlLk6GJQsqaUBKTNV-1">
          <mxGeometry x="160" y="750" width="120" height="80" as="geometry" />
        </mxCell>
        <mxCell id="_IbXsYXAk7EcUgx4raiA-48" value="" style="rounded=0;html=1;jettySize=auto;orthogonalLoop=1;fontSize=11;endArrow=block;endFill=0;endSize=8;strokeWidth=1;shadow=0;labelBackgroundColor=none;edgeStyle=orthogonalEdgeStyle;exitX=0.5;exitY=1;exitDx=0;exitDy=0;" edge="1" parent="WIyWlLk6GJQsqaUBKTNV-1" target="_IbXsYXAk7EcUgx4raiA-51" source="_IbXsYXAk7EcUgx4raiA-46">
          <mxGeometry relative="1" as="geometry">
            <mxPoint x="220" y="830" as="sourcePoint" />
          </mxGeometry>
        </mxCell>
        <mxCell id="_IbXsYXAk7EcUgx4raiA-49" value="Yes" style="rounded=0;html=1;jettySize=auto;orthogonalLoop=1;fontSize=11;endArrow=block;endFill=0;endSize=8;strokeWidth=1;shadow=0;labelBackgroundColor=none;edgeStyle=orthogonalEdgeStyle;entryX=0.5;entryY=0;entryDx=0;entryDy=0;" edge="1" parent="WIyWlLk6GJQsqaUBKTNV-1" source="_IbXsYXAk7EcUgx4raiA-51" target="_IbXsYXAk7EcUgx4raiA-53">
          <mxGeometry x="0.0131" y="20" relative="1" as="geometry">
            <mxPoint y="-1" as="offset" />
            <mxPoint x="220" y="1000" as="targetPoint" />
          </mxGeometry>
        </mxCell>
        <mxCell id="_IbXsYXAk7EcUgx4raiA-50" value="No" style="edgeStyle=orthogonalEdgeStyle;rounded=0;html=1;jettySize=auto;orthogonalLoop=1;fontSize=11;endArrow=block;endFill=0;endSize=8;strokeWidth=1;shadow=0;labelBackgroundColor=none;" edge="1" parent="WIyWlLk6GJQsqaUBKTNV-1" source="_IbXsYXAk7EcUgx4raiA-51" target="_IbXsYXAk7EcUgx4raiA-52">
          <mxGeometry y="10" relative="1" as="geometry">
            <mxPoint as="offset" />
          </mxGeometry>
        </mxCell>
        <mxCell id="_IbXsYXAk7EcUgx4raiA-51" value="&lt;span style=&quot;font-size: 11px;&quot;&gt;Parachute releases as expected?&lt;/span&gt;" style="rhombus;whiteSpace=wrap;html=1;shadow=0;fontFamily=Helvetica;fontSize=9;align=center;strokeWidth=1;spacing=9;spacingTop=-4;" vertex="1" parent="WIyWlLk6GJQsqaUBKTNV-1">
          <mxGeometry x="170" y="880" width="100" height="80" as="geometry" />
        </mxCell>
        <mxCell id="_IbXsYXAk7EcUgx4raiA-52" value="&lt;div&gt;&lt;div&gt;activate manual parachute release&lt;/div&gt;&lt;/div&gt;" style="rounded=1;whiteSpace=wrap;html=1;fontSize=12;glass=0;strokeWidth=1;shadow=0;spacing=1;spacingTop=-2;" vertex="1" parent="WIyWlLk6GJQsqaUBKTNV-1">
          <mxGeometry x="320" y="893.75" width="120" height="52.5" as="geometry" />
        </mxCell>
        <mxCell id="_IbXsYXAk7EcUgx4raiA-53" value="Wait for the rocket to reach ground.&lt;div&gt;retrieve it and remove the SD card for safe keeping.&lt;/div&gt;" style="rounded=1;whiteSpace=wrap;html=1;fontSize=12;glass=0;strokeWidth=1;shadow=0;" vertex="1" parent="WIyWlLk6GJQsqaUBKTNV-1">
          <mxGeometry x="160" y="1000" width="120" height="80" as="geometry" />
        </mxCell>
        <mxCell id="_IbXsYXAk7EcUgx4raiA-55" value="" style="rounded=0;html=1;jettySize=auto;orthogonalLoop=1;fontSize=11;endArrow=block;endFill=0;endSize=8;strokeWidth=1;shadow=0;labelBackgroundColor=none;edgeStyle=orthogonalEdgeStyle;exitX=0.5;exitY=1;exitDx=0;exitDy=0;entryX=1;entryY=0.5;entryDx=0;entryDy=0;" edge="1" parent="WIyWlLk6GJQsqaUBKTNV-1" source="_IbXsYXAk7EcUgx4raiA-52" target="_IbXsYXAk7EcUgx4raiA-53">
          <mxGeometry relative="1" as="geometry">
            <mxPoint x="379.77" y="950" as="sourcePoint" />
            <mxPoint x="379.77" y="1000" as="targetPoint" />
          </mxGeometry>
        </mxCell>
      </root>
    </mxGraphModel>
  </diagram>
</mxfile>
